<svg width="25" height="24" viewBox="0 0 25 24" fill="none" xmlns="http://www.w3.org/2000/svg">
<g id="Discount">
<g id="Iconly/Two-tone/Discount">
<g id="Discount_2">
<path id="Stroke-1" fill-rule="evenodd" clip-rule="evenodd" d="M5.29432 7.05581C5.29432 5.80681 6.30732 4.79381 7.55532 4.79381H8.58432C9.18032 4.79381 9.75332 4.55781 10.1773 4.13681L10.8963 3.41681C11.7773 2.53181 13.2093 2.52781 14.0943 3.40881L14.1033 3.41681L14.8233 4.13681C15.2463 4.55781 15.8193 4.79381 16.4163 4.79381H17.4443C18.6933 4.79381 19.7063 5.80681 19.7063 7.05581V8.08281C19.7063 8.68081 19.9423 9.25281 20.3633 9.67681L21.0833 10.3968C21.9683 11.2778 21.9733 12.7088 21.0923 13.5948L21.0833 13.6038L20.3633 14.3238C19.9423 14.7458 19.7063 15.3198 19.7063 15.9158V16.9448C19.7063 18.1938 18.6933 19.2058 17.4443 19.2058H16.4163C15.8193 19.2058 15.2463 19.4428 14.8233 19.8638L14.1033 20.5828C13.2233 21.4688 11.7913 21.4728 10.9053 20.5918C10.9023 20.5888 10.8993 20.5858 10.8963 20.5828L10.1773 19.8638C9.75332 19.4428 9.18032 19.2058 8.58432 19.2058H7.55532C6.30732 19.2058 5.29432 18.1938 5.29432 16.9448V15.9158C5.29432 15.3198 5.05732 14.7458 4.63632 14.3238L3.91732 13.6038C3.03132 12.7228 3.02732 11.2908 3.90832 10.4058L3.91732 10.3968L4.63632 9.67681C5.05732 9.25281 5.29432 8.68081 5.29432 8.08281V7.05581Z" stroke="#11142D" stroke-width="1.5" stroke-linecap="round" stroke-linejoin="round"/>
<path id="Stroke-3" opacity="0.4" d="M9.92999 14.5695L15.07 9.4295" stroke="#11142D" stroke-width="1.5" stroke-linecap="round" stroke-linejoin="round"/>
<path id="Fill-5" opacity="0.4" d="M15.0667 15.3224C14.8667 15.3224 14.6767 15.2424 14.5367 15.1024C14.4667 15.0324 14.4167 14.9424 14.3767 14.8524C14.3367 14.7624 14.3167 14.6734 14.3167 14.5724C14.3167 14.4724 14.3367 14.3724 14.3767 14.2824C14.4167 14.1924 14.4667 14.1124 14.5367 14.0424C14.8167 13.7624 15.3167 13.7624 15.5967 14.0424C15.6667 14.1124 15.7267 14.1924 15.7667 14.2824C15.7967 14.3724 15.8167 14.4724 15.8167 14.5724C15.8167 14.6734 15.7967 14.7624 15.7667 14.8524C15.7267 14.9424 15.6667 15.0324 15.5967 15.1024C15.4567 15.2424 15.2667 15.3224 15.0667 15.3224Z" fill="#11142D"/>
<path id="Fill-7" opacity="0.4" d="M9.92664 10.1828C9.82664 10.1828 9.73664 10.1618 9.64664 10.1218C9.55664 10.0818 9.46664 10.0328 9.39664 9.96281C9.32664 9.88281 9.27664 9.80281 9.23664 9.71281C9.19664 9.62181 9.17664 9.53281 9.17664 9.43281C9.17664 9.33181 9.19664 9.23281 9.23664 9.14281C9.27664 9.05281 9.32664 8.96281 9.39664 8.90281C9.68664 8.62181 10.1766 8.62181 10.4566 8.90281C10.5966 9.04181 10.6766 9.23281 10.6766 9.43281C10.6766 9.53281 10.6666 9.62181 10.6266 9.71281C10.5866 9.80281 10.5266 9.88281 10.4566 9.96281C10.3866 10.0328 10.3066 10.0818 10.2166 10.1218C10.1266 10.1618 10.0266 10.1828 9.92664 10.1828Z" fill="#11142D"/>
</g>
</g>
</g>
</svg>
