<svg width="17" height="16" viewBox="0 0 17 16" fill="none" xmlns="http://www.w3.org/2000/svg">
<g id="Instagram">
<path id="Shape" fill-rule="evenodd" clip-rule="evenodd" d="M0.810791 4.44444C0.810791 1.98985 2.80064 0 5.25524 0H12.3663C14.8209 0 16.8108 1.98985 16.8108 4.44444V11.5556C16.8108 14.0101 14.8209 16 12.3663 16H5.25524C2.80064 16 0.810791 14.0101 0.810791 11.5556V4.44444ZM5.25524 1.77778C3.78248 1.77778 2.58857 2.97169 2.58857 4.44444V11.5556C2.58857 13.0284 3.78248 14.2222 5.25524 14.2222H12.3663C13.8391 14.2222 15.033 13.0284 15.033 11.5556V4.44444C15.033 2.97169 13.8391 1.77778 12.3663 1.77778H5.25524Z" fill="#11142D"/>
<path id="Shape_2" fill-rule="evenodd" clip-rule="evenodd" d="M12.8108 4.88889C13.3017 4.88889 13.6997 4.49092 13.6997 4C13.6997 3.50909 13.3017 3.11111 12.8108 3.11111C12.3199 3.11111 11.9219 3.50909 11.9219 4C11.9219 4.49092 12.3199 4.88889 12.8108 4.88889ZM7.03301 8C7.03301 7.01814 7.82892 6.22223 8.81079 6.22223C9.79266 6.22223 10.5886 7.01814 10.5886 8C10.5886 8.98187 9.79266 9.77778 8.81079 9.77778C7.82892 9.77778 7.03301 8.98187 7.03301 8ZM8.81079 4.44445C6.84711 4.44445 5.25523 6.03632 5.25523 8C5.25523 9.96365 6.84711 11.5556 8.81079 11.5556C10.7744 11.5556 12.3663 9.96365 12.3663 8C12.3663 6.03632 10.7744 4.44445 8.81079 4.44445Z" fill="#11142D"/>
</g>
</svg>
