<svg width="18" height="18" viewBox="0 0 18 18" fill="none" xmlns="http://www.w3.org/2000/svg">
<g id="Instagram">
<path id="Path" d="M0 4C0 1.79086 1.79086 0 4 0H14C16.2091 0 18 1.79086 18 4V14C18 16.2091 16.2091 18 14 18H4C1.79086 18 0 16.2091 0 14V4Z" fill="#FFE7E4"/>
<path id="Shape" fill-rule="evenodd" clip-rule="evenodd" d="M14.5 4.5C15.0523 4.5 15.5 4.05228 15.5 3.5C15.5 2.94772 15.0523 2.5 14.5 2.5C13.9477 2.5 13.5 2.94772 13.5 3.5C13.5 4.05228 13.9477 4.5 14.5 4.5ZM7 9C7 7.8954 7.8954 7 9 7C10.1046 7 11 7.8954 11 9C11 10.1046 10.1046 11 9 11C7.8954 11 7 10.1046 7 9ZM9 5C6.79086 5 5 6.79086 5 9C5 11.2091 6.79086 13 9 13C11.2091 13 13 11.2091 13 9C13 6.79086 11.2091 5 9 5Z" fill="#FF6A55"/>
</g>
</svg>
