<svg width="139" height="33" viewBox="0 0 139 33" fill="none" xmlns="http://www.w3.org/2000/svg">
<g id="logo tawa">
<path id="Path" d="M60.9328 5.04366C60.3057 3.10798 61.369 1.06326 63.3047 0.436211C65.2403 -0.163575 67.3123 0.899682 67.9121 2.83535C67.3123 0.899682 65.2676 -0.190838 63.3319 0.408948C61.3963 1.00873 60.3057 3.05346 60.9055 4.98913C60.9055 5.01639 60.9328 5.04366 60.9328 5.04366L64.3407 15.7308L60.9328 5.04366Z" fill="url(#paint0_linear_3_236)"/>
<path id="Path_2" d="M104.526 4.96187C104.608 4.7165 104.635 4.47114 104.663 4.22577C104.635 4.44387 104.581 4.68924 104.526 4.96187L98.6375 25.9271C97.2744 30.7254 94.7662 28.3808 94.2754 26.7177C93.7847 25.0547 92.6396 20.1201 92.6396 20.1201L88.0322 6.32502C87.2688 4.77103 86.0693 6.43407 85.4967 8.23343C84.8697 10.1691 83.2339 14.9947 83.2339 14.9947L78.3811 29.4986C77.8631 30.998 76.6635 32.1976 75.1368 32.6883C72.465 33.5607 69.6297 32.1158 68.7573 29.444L68.1302 27.4538C68.0757 27.3448 68.0484 27.2357 67.9939 27.1267L68.7573 29.4986C69.6297 32.1703 72.465 33.6153 75.1368 32.7429C76.6635 32.2521 77.8631 31.0526 78.3811 29.5531L83.2339 15.0492L88.0595 29.5531C88.9319 32.1976 91.7945 33.6153 94.439 32.7429C96.0203 32.2249 97.2471 30.9435 97.7106 29.335L104.526 4.96187Z" fill="url(#paint1_linear_3_236)"/>
<path id="Path_3" d="M72.6013 17.4483L73.6101 20.6108L79.0627 4.28028C79.4989 2.97166 80.5349 1.93566 81.8708 1.47219C82.307 1.33588 82.7159 1.25409 83.1521 1.25409C82.7159 1.25409 82.2797 1.33588 81.8435 1.47219C80.5349 1.9084 79.4989 2.94439 79.0627 4.25302L73.6101 20.5836L67.9121 2.83534L72.6013 17.4483Z" fill="url(#paint2_linear_3_236)"/>
<path id="Path_4" d="M87.3506 4.25303L88.0322 6.32502C88.0867 6.43407 88.1412 6.57039 88.1958 6.7067L87.3506 4.25303C86.7508 2.39915 85.006 1.19958 83.1521 1.2541C85.006 1.22684 86.7236 2.39915 87.3506 4.25303Z" fill="url(#paint3_linear_3_236)"/>
<path id="Path_5" d="M79.0627 4.28029L73.6101 20.6108C73.6101 20.6108 71.8108 25.6 71.4018 26.854C71.0201 28.0264 69.4934 30.8344 68.1302 27.4538L68.7573 29.444C69.6297 32.1158 72.4651 33.5607 75.1368 32.6883C76.6636 32.1976 77.8631 30.998 78.3811 29.4986L83.2339 14.9946C83.2339 14.9946 84.8697 10.1691 85.4968 8.23342C86.0693 6.43407 87.2961 4.77102 88.0322 6.32501L87.3507 4.25303C86.7236 2.39914 85.006 1.22683 83.1522 1.2541C82.716 1.2541 82.307 1.33589 81.8708 1.4722C80.5349 1.93567 79.4989 2.97167 79.0627 4.28029Z" fill="url(#paint4_linear_3_236)"/>
<path id="Path_6" d="M79.0627 4.28029L73.6101 20.6108C73.6101 20.6108 71.8108 25.6 71.4018 26.854C71.0201 28.0264 69.4934 30.8344 68.1302 27.4538L68.7573 29.444C69.6297 32.1158 72.4651 33.5607 75.1368 32.6883C76.6636 32.1976 77.8631 30.998 78.3811 29.4986L83.2339 14.9946C83.2339 14.9946 84.8697 10.1691 85.4968 8.23342C86.0693 6.43407 87.2961 4.77102 88.0322 6.32501L87.3507 4.25303C86.7236 2.39914 85.006 1.22683 83.1522 1.2541C82.716 1.2541 82.307 1.33589 81.8708 1.4722C80.5349 1.93567 79.4989 2.97167 79.0627 4.28029Z" fill="url(#paint5_linear_3_236)"/>
<path id="Path_7" d="M72.6013 17.4483L73.61 20.6108L72.6013 17.4483Z" fill="url(#paint6_linear_3_236)"/>
<path id="Path_8" d="M72.6013 17.4483L73.61 20.6108L72.6013 17.4483Z" fill="url(#paint7_linear_3_236)"/>
<path id="Path_9" d="M101.009 0.299907C101.337 0.299907 101.664 0.354433 101.991 0.436222C103.681 0.899693 104.772 2.53547 104.663 4.22578C104.799 2.53547 103.708 0.899693 101.991 0.408959H101.964C101.636 0.32717 101.309 0.272644 100.982 0.272644C99.3191 0.272644 97.8741 1.36316 97.4379 2.94442C97.8741 1.36316 99.3191 0.272644 101.009 0.299907Z" fill="url(#paint8_linear_3_236)"/>
<path id="Path_10" d="M94.2754 26.7177C94.7662 28.3808 97.2744 30.7254 98.6375 25.9271L104.526 4.93462C104.581 4.68925 104.635 4.44388 104.663 4.22578C104.772 2.53547 103.681 0.926957 101.991 0.436223C101.664 0.354434 101.337 0.299908 101.009 0.299908C99.3191 0.272645 97.8741 1.36316 97.4379 2.94442L92.6396 20.1201C92.6396 20.1201 93.7847 25.0547 94.2754 26.7177Z" fill="url(#paint9_linear_3_236)"/>
<path id="Path_11" d="M94.2754 26.7177C94.7662 28.3808 97.2744 30.7254 98.6375 25.9271L104.526 4.93462C104.581 4.68925 104.635 4.44388 104.663 4.22578C104.772 2.53547 103.681 0.926957 101.991 0.436223C101.664 0.354434 101.337 0.299908 101.009 0.299908C99.3191 0.272645 97.8741 1.36316 97.4379 2.94442L92.6396 20.1201C92.6396 20.1201 93.7847 25.0547 94.2754 26.7177Z" fill="url(#paint10_linear_3_236)"/>
<path id="Path_12" d="M67.8576 26.7177C67.9122 26.854 67.9394 26.9904 67.9939 27.1267L64.3407 15.7307L67.8576 26.7177Z" fill="url(#paint11_linear_3_236)"/>
<path id="Path_13" d="M67.4214 25.2455L71.8925 21.0198L72.6014 17.4483L67.9121 2.83536C67.3124 0.899683 65.2404 -0.163574 63.3047 0.436212C61.369 1.06326 60.3058 3.10799 60.9328 5.04366L64.3407 15.7308L67.9939 27.1267C68.0485 27.2357 68.0757 27.3448 68.1302 27.4538L67.4214 25.2455Z" fill="url(#paint12_linear_3_236)"/>
<path id="Path_14" d="M67.4214 25.2455L71.8925 21.0198L72.6014 17.4483L67.9121 2.83536C67.3124 0.899683 65.2404 -0.163574 63.3047 0.436212C61.369 1.06326 60.3058 3.10799 60.9328 5.04366L64.3407 15.7308L67.9939 27.1267C68.0485 27.2357 68.0757 27.3448 68.1302 27.4538L67.4214 25.2455Z" fill="url(#paint13_linear_3_236)"/>
<path id="Path_15" d="M71.4018 26.854C71.8107 25.5999 73.6101 20.6108 73.6101 20.6108L72.6014 17.4483L71.8925 21.0198L67.4214 25.2455L68.1302 27.4538C69.4934 30.8344 71.0201 28.0263 71.4018 26.854Z" fill="url(#paint14_linear_3_236)"/>
<path id="Path_16" d="M71.4018 26.854C71.8107 25.5999 73.6101 20.6108 73.6101 20.6108L72.6014 17.4483L71.8925 21.0198L67.4214 25.2455L68.1302 27.4538C69.4934 30.8344 71.0201 28.0263 71.4018 26.854Z" fill="url(#paint15_linear_3_236)"/>
<path id="Path_17" d="M71.4018 26.854C71.8107 25.5999 73.6101 20.6108 73.6101 20.6108L72.6014 17.4483L71.8925 21.0198L67.4214 25.2455L68.1302 27.4538C69.4934 30.8344 71.0201 28.0263 71.4018 26.854Z" fill="url(#paint16_linear_3_236)"/>
<path id="Path_18" d="M10.6326 29.0351C10.6326 31.0526 12.2683 32.6883 14.2858 32.6883C16.3033 32.6883 17.9391 31.0526 17.9391 29.0351V7.30649H10.6326V29.0351Z" fill="url(#paint17_linear_3_236)"/>
<path id="Path_19" d="M3.65324 7.30648H10.6326V6.51586H17.939V7.30648H24.9729C26.9904 7.30648 28.6261 5.6707 28.6261 3.65324C28.6261 1.63578 26.9904 0 24.9729 0H3.65324C1.63578 0 0 1.63578 0 3.65324C0 5.6707 1.63578 7.30648 3.65324 7.30648Z" fill="url(#paint18_linear_3_236)"/>
<rect id="Rectangle" x="10.6326" y="6.51587" width="7.30648" height="0.790627" fill="url(#paint19_linear_3_236)"/>
<rect id="Rectangle_2" x="10.6326" y="6.51587" width="7.30648" height="0.790627" fill="url(#paint20_linear_3_236)"/>
<path id="Path_20" d="M54.5532 30.6436C55.0985 32.034 56.4616 32.9337 57.9611 32.9337C58.4246 32.9337 58.8881 32.8519 59.3243 32.6611C61.2054 31.925 62.1324 29.7984 61.369 27.9173L58.6427 21.2106C58.6427 21.2106 58.6427 21.2106 58.6427 21.1833L51.1726 2.53545C51.1726 2.53545 51.1726 2.50819 51.1454 2.50819C51.0908 2.34461 51.009 2.2083 50.9 2.07198C50.8727 2.01746 50.8455 1.93567 50.7909 1.85388C50.7092 1.74483 50.6274 1.63577 50.5456 1.55398C50.4911 1.4722 50.4093 1.39041 50.3275 1.30862C50.2457 1.22683 50.1639 1.1723 50.0821 1.09051C50.0003 1.00873 49.8913 0.926936 49.8095 0.87241C49.6732 0.790621 49.5096 0.681569 49.346 0.627043C49.2915 0.59978 49.237 0.572517 49.1824 0.545254C49.0734 0.490728 48.9371 0.463465 48.828 0.436202C48.719 0.408939 48.6099 0.354413 48.5009 0.32715C48.3918 0.299887 48.3373 0.299887 48.2555 0.299887C48.0919 0.272624 47.9283 0.245361 47.792 0.245361H43.7026C42.2031 0.245361 40.8672 1.14504 40.2947 2.53545C40.3765 2.53545 40.4583 2.50819 40.5673 2.53545C41.3307 2.53545 43.7026 2.99892 45.7473 8.69689L38.7134 26.3088L41.6578 18.975L45.7746 8.69689L49.8913 18.975L52.8357 26.3088L54.5532 30.6436Z" fill="url(#paint21_linear_3_236)"/>
<path id="Path_21" d="M40.5673 2.53546C40.4583 2.5082 40.3765 2.53546 40.2947 2.53546L32.8519 21.2106L30.1801 27.9173C29.4168 29.7985 30.3437 31.925 32.2249 32.6883C32.6611 32.8792 33.1245 32.961 33.588 32.961C35.0875 32.961 36.4234 32.0613 36.9959 30.6436L38.7135 26.3088L45.7473 8.6969C43.7026 2.99893 41.3307 2.53546 40.5673 2.53546Z" fill="url(#paint22_linear_3_236)"/>
<path id="Path_22" d="M40.5673 2.53546C40.4583 2.5082 40.3765 2.53546 40.2947 2.53546L32.8519 21.2106L30.1801 27.9173C29.4168 29.7985 30.3437 31.925 32.2249 32.6883C32.6611 32.8792 33.1245 32.961 33.588 32.961C35.0875 32.961 36.4234 32.0613 36.9959 30.6436L38.7135 26.3088L45.7473 8.6969C43.7026 2.99893 41.3307 2.53546 40.5673 2.53546Z" fill="url(#paint23_linear_3_236)"/>
<path id="Path_23" d="M122.82 8.69689L126.936 18.975L129.881 26.3088L131.626 30.6436C132.171 32.034 133.534 32.961 135.034 32.961C135.497 32.961 135.961 32.8792 136.397 32.6883C138.278 31.925 139.178 29.7984 138.441 27.9173L135.661 21.2106C135.661 21.2106 135.661 21.2106 135.661 21.1833L128.191 2.53545V2.50819C128.136 2.34461 128.054 2.2083 127.972 2.07198C127.945 2.01746 127.891 1.93567 127.863 1.85388C127.782 1.74483 127.7 1.63577 127.618 1.55398C127.564 1.4722 127.482 1.39041 127.4 1.30862C127.318 1.22683 127.236 1.1723 127.127 1.09051C127.046 1.00873 126.936 0.926936 126.855 0.87241C126.718 0.790621 126.555 0.681569 126.391 0.627043C126.337 0.59978 126.282 0.572517 126.228 0.545254C126.119 0.490728 125.982 0.463465 125.873 0.436202C125.764 0.408939 125.655 0.354413 125.546 0.32715C125.437 0.299887 125.382 0.299887 125.301 0.299887C125.137 0.272624 124.974 0.245361 124.81 0.245361H120.748C119.248 0.245361 117.912 1.14504 117.34 2.53545C117.422 2.53545 117.503 2.50819 117.613 2.53545C118.376 2.53545 120.748 3.02619 122.793 8.69689" fill="url(#paint24_linear_3_236)"/>
<path id="Path_24" d="M117.613 2.53546C117.503 2.5082 117.422 2.53546 117.34 2.53546L109.87 21.2106L107.198 27.9173C106.435 29.7985 107.362 31.925 109.243 32.6883C109.679 32.8792 110.142 32.961 110.606 32.961C112.105 32.961 113.441 32.0613 114.014 30.6436L115.759 26.3088L122.793 8.6969C120.748 3.0262 118.376 2.53546 117.613 2.53546Z" fill="url(#paint25_linear_3_236)"/>
<path id="Path_25" d="M117.613 2.53546C117.503 2.5082 117.422 2.53546 117.34 2.53546L109.87 21.2106L107.198 27.9173C106.435 29.7985 107.362 31.925 109.243 32.6883C109.679 32.8792 110.142 32.961 110.606 32.961C112.105 32.961 113.441 32.0613 114.014 30.6436L115.759 26.3088L122.793 8.6969C120.748 3.0262 118.376 2.53546 117.613 2.53546Z" fill="url(#paint26_linear_3_236)"/>
</g>
<defs>
<linearGradient id="paint0_linear_3_236" x1="84.7767" y1="27.7751" x2="63.9423" y2="16.3342" gradientUnits="userSpaceOnUse">
<stop stop-color="#563AFF"/>
<stop offset="1" stop-color="#49D1FF"/>
</linearGradient>
<linearGradient id="paint1_linear_3_236" x1="111.773" y1="29.5512" x2="104.597" y2="-0.292504" gradientUnits="userSpaceOnUse">
<stop stop-color="#563AFF"/>
<stop offset="1" stop-color="#49D1FF"/>
</linearGradient>
<linearGradient id="paint2_linear_3_236" x1="99.5305" y1="28.8524" x2="83.314" y2="3.10944" gradientUnits="userSpaceOnUse">
<stop stop-color="#563AFF"/>
<stop offset="1" stop-color="#49D1FF"/>
</linearGradient>
<linearGradient id="paint3_linear_3_236" x1="71.117" y1="-6.63733" x2="57.0803" y2="27.181" gradientUnits="userSpaceOnUse">
<stop stop-color="#563AFF"/>
<stop offset="1" stop-color="#49D1FF"/>
</linearGradient>
<linearGradient id="paint4_linear_3_236" x1="94.9379" y1="27.9333" x2="74.931" y2="7.7239" gradientUnits="userSpaceOnUse">
<stop stop-color="#563AFF"/>
<stop offset="1" stop-color="#49D1FF"/>
</linearGradient>
<linearGradient id="paint5_linear_3_236" x1="73.5782" y1="-10.715" x2="50.9104" y2="14.4779" gradientUnits="userSpaceOnUse">
<stop stop-color="#563AFF"/>
<stop offset="1" stop-color="#49D1FF"/>
</linearGradient>
<linearGradient id="paint6_linear_3_236" x1="85.4448" y1="21.205" x2="67.8507" y2="16.621" gradientUnits="userSpaceOnUse">
<stop stop-color="#563AFF"/>
<stop offset="1" stop-color="#49D1FF"/>
</linearGradient>
<linearGradient id="paint7_linear_3_236" x1="75.1552" y1="-21.5111" x2="54.6696" y2="-15.6386" gradientUnits="userSpaceOnUse">
<stop stop-color="#563AFF"/>
<stop offset="1" stop-color="#49D1FF"/>
</linearGradient>
<linearGradient id="paint8_linear_3_236" x1="79.405" y1="-6.16086" x2="76.362" y2="21.1097" gradientUnits="userSpaceOnUse">
<stop stop-color="#563AFF"/>
<stop offset="1" stop-color="#49D1FF"/>
</linearGradient>
<linearGradient id="paint9_linear_3_236" x1="111.177" y1="16.0666" x2="90.9445" y2="6.82091" gradientUnits="userSpaceOnUse">
<stop stop-color="#563AFF"/>
<stop offset="1" stop-color="#49D1FF"/>
</linearGradient>
<linearGradient id="paint10_linear_3_236" x1="99.011" y1="-14.8296" x2="80.6371" y2="-6.06035" gradientUnits="userSpaceOnUse">
<stop stop-color="#563AFF"/>
<stop offset="1" stop-color="#49D1FF"/>
</linearGradient>
<linearGradient id="paint11_linear_3_236" x1="73.7703" y1="18.9929" x2="55.7059" y2="11.5082" gradientUnits="userSpaceOnUse">
<stop stop-color="#563AFF"/>
<stop offset="1" stop-color="#49D1FF"/>
</linearGradient>
<linearGradient id="paint12_linear_3_236" x1="84.0464" y1="27.1473" x2="63.581" y2="17.191" gradientUnits="userSpaceOnUse">
<stop stop-color="#563AFF"/>
<stop offset="1" stop-color="#49D1FF"/>
</linearGradient>
<linearGradient id="paint13_linear_3_236" x1="78.5456" y1="21.535" x2="58.1248" y2="5.89447" gradientUnits="userSpaceOnUse">
<stop stop-color="#563AFF"/>
<stop offset="1" stop-color="#49D1FF"/>
</linearGradient>
<linearGradient id="paint14_linear_3_236" x1="84.9945" y1="29.6745" x2="63.8956" y2="14.3384" gradientUnits="userSpaceOnUse">
<stop stop-color="#563AFF"/>
<stop offset="1" stop-color="#49D1FF"/>
</linearGradient>
<linearGradient id="paint15_linear_3_236" x1="70.3972" y1="-14.1744" x2="46.063" y2="5.28678" gradientUnits="userSpaceOnUse">
<stop stop-color="#563AFF"/>
<stop offset="1" stop-color="#49D1FF"/>
</linearGradient>
<linearGradient id="paint16_linear_3_236" x1="80.9055" y1="22.9874" x2="61.6406" y2="0.941733" gradientUnits="userSpaceOnUse">
<stop stop-color="#563AFF"/>
<stop offset="1" stop-color="#49D1FF"/>
</linearGradient>
<linearGradient id="paint17_linear_3_236" x1="11.4883" y1="4.61419" x2="11.4883" y2="24.0636" gradientUnits="userSpaceOnUse">
<stop stop-color="#563AFF"/>
<stop offset="1" stop-color="#49D1FF"/>
</linearGradient>
<linearGradient id="paint18_linear_3_236" x1="1.09621" y1="7.29373" x2="29.7215" y2="7.29373" gradientUnits="userSpaceOnUse">
<stop stop-color="#563AFF"/>
<stop offset="1" stop-color="#49D1FF"/>
</linearGradient>
<linearGradient id="paint19_linear_3_236" x1="-75.582" y1="4.6142" x2="-75.582" y2="24.0636" gradientUnits="userSpaceOnUse">
<stop stop-color="#563AFF"/>
<stop offset="1" stop-color="#49D1FF"/>
</linearGradient>
<linearGradient id="paint20_linear_3_236" x1="1.09621" y1="8.44741" x2="29.7473" y2="8.44741" gradientUnits="userSpaceOnUse">
<stop stop-color="#563AFF"/>
<stop offset="1" stop-color="#49D1FF"/>
</linearGradient>
<linearGradient id="paint21_linear_3_236" x1="65.1516" y1="29.603" x2="46.9128" y2="-0.180343" gradientUnits="userSpaceOnUse">
<stop stop-color="#9100FF"/>
<stop offset="1" stop-color="#FF69AD"/>
</linearGradient>
<linearGradient id="paint22_linear_3_236" x1="52.9908" y1="29.7395" x2="30.0407" y2="9.11401" gradientUnits="userSpaceOnUse">
<stop stop-color="#9100FF"/>
<stop offset="1" stop-color="#FF69AD"/>
</linearGradient>
<linearGradient id="paint23_linear_3_236" x1="37.5424" y1="-9.78367" x2="14.6892" y2="2.8308" gradientUnits="userSpaceOnUse">
<stop stop-color="#9100FF"/>
<stop offset="1" stop-color="#FF69AD"/>
</linearGradient>
<linearGradient id="paint24_linear_3_236" x1="145.436" y1="28.0652" x2="125.673" y2="0.0963612" gradientUnits="userSpaceOnUse">
<stop stop-color="#9100FF"/>
<stop offset="1" stop-color="#FF69AD"/>
</linearGradient>
<linearGradient id="paint25_linear_3_236" x1="130.11" y1="29.9796" x2="107.172" y2="9.29345" gradientUnits="userSpaceOnUse">
<stop stop-color="#9100FF"/>
<stop offset="1" stop-color="#FF69AD"/>
</linearGradient>
<linearGradient id="paint26_linear_3_236" x1="114.565" y1="-9.77751" x2="91.7066" y2="2.88312" gradientUnits="userSpaceOnUse">
<stop stop-color="#9100FF"/>
<stop offset="1" stop-color="#FF69AD"/>
</linearGradient>
</defs>
</svg>
