<svg width="19" height="18" viewBox="0 0 19 18" fill="none" xmlns="http://www.w3.org/2000/svg">
<g id="TikTok">
<path id="Shape" fill-rule="evenodd" clip-rule="evenodd" d="M6.56949 3.0076e-07H13.0521C13.8571 -9.69924e-06 14.5214 -1.96993e-05 15.0626 0.0441903C15.6247 0.0901203 16.1414 0.18868 16.6268 0.43597C17.3794 0.81947 17.9913 1.43139 18.3748 2.18404C18.6221 2.66937 18.7207 3.18608 18.7666 3.74817C18.8108 4.28936 18.8108 4.95372 18.8108 5.75868V12.2413C18.8108 13.0463 18.8108 13.7106 18.7666 14.2518C18.7207 14.8139 18.6221 15.3306 18.3748 15.816C17.9913 16.5686 17.3794 17.1805 16.6268 17.564C16.1414 17.8113 15.6247 17.9099 15.0626 17.9558C14.5214 18 13.8571 18 13.0521 18H6.56947C5.76451 18 5.10015 18 4.55896 17.9558C3.99687 17.9099 3.48016 17.8113 2.99483 17.564C2.24218 17.1805 1.63026 16.5686 1.24676 15.816C0.999471 15.3306 0.900911 14.8139 0.854981 14.2518C0.810771 13.7106 0.810781 13.0463 0.810791 12.2413V5.7587C0.810781 4.95373 0.810771 4.28937 0.854981 3.74817C0.900911 3.18608 0.999471 2.66937 1.24676 2.18404C1.63026 1.43139 2.24218 0.81947 2.99483 0.43597C3.48016 0.18868 3.99687 0.0901203 4.55896 0.0441903C5.10016 -1.96993e-05 5.76452 -9.69924e-06 6.56949 3.0076e-07ZM4.72183 2.03755C4.28341 2.07337 4.05921 2.1383 3.90281 2.21799C3.52649 2.40973 3.22052 2.7157 3.02878 3.09202C2.94909 3.24842 2.88416 3.47262 2.84834 3.91104C2.81157 4.36113 2.81079 4.94342 2.81079 5.8V12.2C2.81079 13.0566 2.81157 13.6389 2.84834 14.089C2.88416 14.5274 2.94909 14.7516 3.02878 14.908C3.22052 15.2843 3.52649 15.5903 3.90281 15.782C4.05921 15.8617 4.28341 15.9266 4.72183 15.9624C5.17192 15.9992 5.75421 16 6.61079 16H13.0108C13.8674 16 14.4497 15.9992 14.8998 15.9624C15.3382 15.9266 15.5624 15.8617 15.7188 15.782C16.0951 15.5903 16.4011 15.2843 16.5928 14.908C16.6725 14.7516 16.7374 14.5274 16.7732 14.089C16.81 13.6389 16.8108 13.0566 16.8108 12.2V5.8C16.8108 4.94342 16.81 4.36113 16.7732 3.91104C16.7374 3.47262 16.6725 3.24842 16.5928 3.09202C16.4011 2.7157 16.0951 2.40973 15.7188 2.21799C15.5624 2.1383 15.3382 2.07337 14.8998 2.03755C14.4497 2.00078 13.8674 2 13.0108 2H6.61079C5.75421 2 5.17192 2.00078 4.72183 2.03755Z" fill="#6F767E"/>
<path id="Path" fill-rule="evenodd" clip-rule="evenodd" d="M11.8108 5C11.8108 4.44772 11.3631 4 10.8108 4C10.2585 4 9.81079 4.44772 9.81079 5V11C9.81079 11.5523 9.36309 12 8.81079 12C8.25849 12 7.81079 11.5523 7.81079 11C7.81079 10.8162 7.85949 10.6468 7.94399 10.5007C8.03199 10.3486 8.15939 10.2212 8.31149 10.1332C8.78959 9.8566 8.95289 9.2449 8.67639 8.7669C8.39989 8.2888 7.78812 8.1254 7.31006 8.402C6.85498 8.6652 6.476 9.0442 6.21275 9.4993C5.9569 9.9416 5.81079 10.4552 5.81079 11C5.81079 12.6569 7.15394 14 8.81079 14C10.4677 14 11.8108 12.6569 11.8108 11V8.4646C12.0217 8.5866 12.2447 8.6898 12.4776 8.7721C12.9983 8.9562 13.5696 8.6833 13.7536 8.1625C13.9377 7.6418 13.6648 7.0705 13.144 6.88645C12.3659 6.61142 11.8108 5.86925 11.8108 5Z" fill="#6F767E"/>
</g>
</svg>
