<svg width="18" height="18" viewBox="0 0 18 18" fill="none" xmlns="http://www.w3.org/2000/svg">
<g id="TikTok">
<path id="Path" d="M0 4.8C0 3.11984 0 2.27976 0.32698 1.63803C0.6146 1.07354 1.07354 0.6146 1.63803 0.32698C2.27976 0 3.11984 0 4.8 0H13.2C14.8802 0 15.7202 0 16.362 0.32698C16.9265 0.6146 17.3854 1.07354 17.673 1.63803C18 2.27976 18 3.11984 18 4.8V13.2C18 14.8802 18 15.7202 17.673 16.362C17.3854 16.9265 16.9265 17.3854 16.362 17.673C15.7202 18 14.8802 18 13.2 18H4.8C3.11984 18 2.27976 18 1.63803 17.673C1.07354 17.3854 0.6146 16.9265 0.32698 16.362C0 15.7202 0 14.8802 0 13.2V4.8Z" fill="#CABDFF"/>
<path id="Path_2" fill-rule="evenodd" clip-rule="evenodd" d="M10 3C10.5523 3 11 3.44772 11 4C11 5.10457 11.8954 6 13 6C13.5523 6 14 6.44772 14 7C14 7.5523 13.5523 8 13 8C12.2714 8 11.5883 7.8052 11 7.4649V11.4998C11 11.4999 11 11.4999 11 11.5C10.9999 13.4329 9.4329 14.9998 7.5 14.9998C5.567 14.9998 4 13.4328 4 11.4998C4 9.8054 5.20308 8.3942 6.80107 8.0698C7.3423 7.9599 7.8701 8.3096 7.98 8.8509C8.0899 9.3921 7.7402 9.92 7.1989 10.0298C6.51468 10.1687 6 10.7753 6 11.4998C6 12.3282 6.67157 12.9998 7.5 12.9998C8.3284 12.9998 8.9999 12.3283 9 11.5C9 11.4999 9 11.4999 9 11.4998V4C9 3.44772 9.4477 3 10 3Z" fill="#6C5DD3"/>
</g>
</svg>
